<svg width="31" height="15" viewBox="0 0 31 15" fill="none" xmlns="http://www.w3.org/2000/svg">
<path d="M9.88 12.76C9.88 12.88 9.95333 12.94 10.1 12.94C10.26 12.94 10.54 12.8467 10.94 12.66C11.3533 12.4733 11.84 12.1867 12.4 11.8C12.9733 11.4133 13.7267 10.8667 14.66 10.16C15.6067 9.44 16.4333 8.83333 17.14 8.34C17.26 8.43333 17.32 8.54667 17.32 8.68C17.32 8.81333 17.26 8.93333 17.14 9.04C16.7133 9.45333 16.1733 9.97333 15.52 10.6C14.8667 11.2133 13.8667 12.04 12.52 13.08C11.1867 14.12 10.2533 14.64 9.72 14.64C8.69333 14.64 8.18 14.0933 8.18 13C8.18 12.5867 8.34 12.1533 8.66 11.7L9.52 10.52C9.6 10.4 9.64 10.3333 9.64 10.32C9.64 10.2933 9.6 10.3133 9.52 10.38C7.2 12.3133 5.72 13.4467 5.08 13.78C4.97333 13.8467 4.84 13.88 4.68 13.88C4.24 13.88 4.02 13.68 4.02 13.28C4.02 13.1467 4.05333 13.0267 4.12 12.92C4.89333 11.8 5.48667 11.0467 5.9 10.66L6.24 10.32C6.26667 10.2933 6.28 10.2667 6.28 10.24C6.28 10.2133 6.26667 10.2 6.24 10.2C6.21333 10.2 6.17333 10.2267 6.12 10.28L3.98 11.96C2.74 12.9333 2.06 13.4533 1.94 13.52C1.83333 13.5733 1.73333 13.6 1.64 13.6C1.54667 13.6 1.4 13.5467 1.2 13.44C1 13.32 0.9 13.1867 0.9 13.04C0.9 13 0.92 12.9467 0.96 12.88C2.26667 11.44 3.22 10.2533 3.82 9.32C4.07333 8.92 4.29333 8.56667 4.48 8.26C4.68 7.94 4.83333 7.71333 4.94 7.58C5.06 7.44667 5.18667 7.38 5.32 7.38C5.45333 7.38 5.6 7.46 5.76 7.62C5.93333 7.76667 6.02 7.92 6.02 8.08C6.02 8.24 5.96667 8.40667 5.86 8.58C5.40667 9.39333 5.05333 9.92 4.8 10.16C4.76 10.2 4.74 10.24 4.74 10.28C4.74 10.3067 4.75333 10.32 4.78 10.32L4.84 10.3L7.52 8.44C8.2 7.97333 8.60667 7.74 8.74 7.74C8.87333 7.74 9.01333 7.78667 9.16 7.88C9.32 7.96 9.4 8.05333 9.4 8.16C9.4 8.26667 9.36667 8.37333 9.3 8.48L8 10.26C7.82667 10.4733 7.74 10.5933 7.74 10.62C7.74 10.6467 7.74667 10.66 7.76 10.66L7.86 10.6C9.52667 9.46667 10.6533 8.68 11.24 8.24C11.84 7.8 12.2 7.52 12.32 7.4C12.5067 7.26667 12.66 7.2 12.78 7.2C12.9133 7.2 13 7.21333 13.04 7.24L13.48 7.58C13.6133 7.64667 13.68 7.73333 13.68 7.84C13.68 7.94667 13.6533 8.03333 13.6 8.1C12.8133 8.95333 12.18 9.63333 11.7 10.14C11.2333 10.6467 10.8933 11.02 10.68 11.26C10.3333 11.6733 10.12 12.0067 10.04 12.26C9.93333 12.4467 9.88 12.6133 9.88 12.76ZM14.2916 4.24C14.1049 4.24 13.7782 4.06 13.3116 3.7C12.8316 3.34 12.5916 3.04667 12.5916 2.82C12.5916 2.59333 12.7516 2.42 13.0716 2.3C13.6849 2.03333 14.3049 1.82667 14.9316 1.68L15.2316 1.62C15.2982 1.59333 15.3582 1.58 15.4116 1.58C15.5049 1.58 15.5516 1.63333 15.5516 1.74C15.5516 1.83333 15.6049 1.88 15.7116 1.88C15.8182 1.88 16.3049 1.78667 17.1716 1.6C19.7716 1.06667 22.2316 0.799999 24.5516 0.799999C25.9116 0.799999 27.0649 0.966666 28.0116 1.3C28.9716 1.62 29.4516 2.08 29.4516 2.68C29.4516 2.81333 29.2649 2.88 28.8916 2.88C28.5316 2.88 28.0916 2.88667 27.5716 2.9C27.0649 2.91333 26.4249 2.93333 25.6516 2.96C23.8382 3.04 22.9316 3.22 22.9316 3.5C22.9316 3.55333 22.9449 3.59333 22.9716 3.62C22.9716 3.68667 22.8982 3.8 22.7516 3.96C22.6049 4.10667 22.3782 4.34667 22.0716 4.68C21.7649 5.01333 21.1916 5.65333 20.3516 6.6C19.5116 7.53333 18.7382 8.41333 18.0316 9.24C16.2049 11.4 14.9449 13.0667 14.2516 14.24C14.2116 14.6933 14.0782 14.92 13.8516 14.92C13.6782 14.92 13.4516 14.7867 13.1716 14.52C12.8782 14.2533 12.7316 13.9267 12.7316 13.54C12.7316 12.82 13.2716 11.8067 14.3516 10.5C15.4316 9.19333 17.5649 7.09333 20.7516 4.2C20.8982 4.05333 21.0316 3.93333 21.1516 3.84C21.3382 3.69333 21.4316 3.60667 21.4316 3.58C21.4316 3.55333 21.3916 3.54 21.3116 3.54C21.2316 3.54 21.0716 3.55333 20.8316 3.58L14.7116 4.18C14.6182 4.22 14.4782 4.24 14.2916 4.24ZM23.4386 12.24C23.4386 12.3067 23.4653 12.34 23.5186 12.34C23.5719 12.34 23.6786 12.3 23.8386 12.22C25.8253 11.1533 28.0119 9.73333 30.3986 7.96C30.5186 8.05333 30.5786 8.16667 30.5786 8.3C30.5786 8.43333 30.5119 8.56 30.3786 8.68C30.2453 8.8 30.0519 8.97333 29.7986 9.2C29.5586 9.42667 29.0919 9.83333 28.3986 10.42C27.7053 11.0067 27.0586 11.54 26.4586 12.02C24.8853 13.2867 23.7253 14.0333 22.9786 14.26C22.7386 14.3267 22.4786 14.36 22.1986 14.36C21.7453 14.36 21.5186 14.0067 21.5186 13.3C21.5186 13.06 21.6653 12.6667 21.9586 12.12C22.2519 11.56 22.3986 11.1533 22.3986 10.9C22.3986 10.8733 22.3786 10.86 22.3386 10.86C22.2986 10.86 22.1986 10.92 22.0386 11.04C20.1853 12.48 19.0586 13.48 18.6586 14.04C18.5786 14.16 18.4719 14.22 18.3386 14.22C18.0453 14.22 17.8586 14.08 17.7786 13.8C17.7786 13.4 18.3386 12.3867 19.4586 10.76C20.5919 9.13333 21.9186 7.42667 23.4386 5.64C24.9586 3.84 26.1986 2.57333 27.1586 1.84C27.4386 1.57333 28.0919 1.44 29.1186 1.44C29.2786 1.48 29.3586 1.54667 29.3586 1.64C29.3586 1.73333 29.3119 1.82667 29.2186 1.92C25.3786 5.62667 22.9386 8.19333 21.8986 9.62C21.8453 9.67333 21.7719 9.77333 21.6786 9.92C21.5986 10.0533 21.5586 10.14 21.5586 10.18L21.5786 10.2C21.6319 10.2 22.0519 9.90667 22.8386 9.32C23.6253 8.72 24.2119 8.29333 24.5986 8.04C24.7186 7.92 24.9719 7.86 25.3586 7.86C25.6919 7.9 25.8586 8.00667 25.8586 8.18C25.8586 8.23333 25.8453 8.28 25.8186 8.32C24.8319 9.72 24.2386 10.6133 24.0386 11C23.6386 11.6267 23.4386 12.04 23.4386 12.24Z" fill="white"/>
</svg>
